<mxfile host="app.diagrams.net" agent="Mozilla/5.0 (Windows NT 10.0; Win64; x64) AppleWebKit/537.36 (KHTML, like Gecko) Chrome/131.0.0.0 Safari/537.36" version="24.8.6">
  <diagram name="Page-1" id="I5cU1eIzlYFjKwRmXfb6">
    <mxGraphModel dx="3300" dy="1914" grid="0" gridSize="10" guides="1" tooltips="1" connect="1" arrows="1" fold="1" page="0" pageScale="1" pageWidth="827" pageHeight="1169" background="#000000" math="0" shadow="0">
      <root>
        <mxCell id="0" />
        <mxCell id="1" parent="0" />
        <mxCell id="KRiP4CdJcdi0m5m1S3oV-21" value="" style="edgeStyle=orthogonalEdgeStyle;rounded=0;orthogonalLoop=1;jettySize=auto;html=1;" edge="1" parent="1" source="KRiP4CdJcdi0m5m1S3oV-16" target="KRiP4CdJcdi0m5m1S3oV-20">
          <mxGeometry relative="1" as="geometry" />
        </mxCell>
        <mxCell id="KRiP4CdJcdi0m5m1S3oV-16" value="&lt;span style=&quot;font-size: 24px;&quot;&gt;Background music&lt;/span&gt;" style="rounded=1;whiteSpace=wrap;html=1;rotation=0;fillColor=#000000;strokeColor=#FFFFFF;fontColor=#FFFFFF;" vertex="1" parent="1">
          <mxGeometry x="-43" y="-641" width="147" height="144" as="geometry" />
        </mxCell>
        <mxCell id="KRiP4CdJcdi0m5m1S3oV-17" value="&lt;div&gt;&lt;span style=&quot;font-size: 24px;&quot;&gt;Input Text&lt;/span&gt;&lt;/div&gt;" style="shape=manualInput;whiteSpace=wrap;html=1;fillColor=#000000;strokeColor=#FFFFFF;labelBackgroundColor=#030303;labelBorderColor=none;fontColor=#FFFFFF;" vertex="1" parent="1">
          <mxGeometry x="-1120" y="-631" width="162" height="110" as="geometry" />
        </mxCell>
        <mxCell id="KRiP4CdJcdi0m5m1S3oV-20" value="&lt;div&gt;&lt;span style=&quot;font-size: 24px;&quot;&gt;Prompt Text for background music&lt;/span&gt;&lt;/div&gt;" style="shape=manualInput;whiteSpace=wrap;html=1;fillColor=#000000;strokeColor=#FFFFFF;labelBackgroundColor=#030303;labelBorderColor=none;fontColor=#FFFFFF;" vertex="1" parent="1">
          <mxGeometry x="187" y="-657" width="181" height="148" as="geometry" />
        </mxCell>
        <mxCell id="KRiP4CdJcdi0m5m1S3oV-24" style="edgeStyle=orthogonalEdgeStyle;rounded=0;orthogonalLoop=1;jettySize=auto;html=1;exitX=0;exitY=0.5;exitDx=0;exitDy=0;entryX=0.992;entryY=0.397;entryDx=0;entryDy=0;entryPerimeter=0;strokeColor=#FCFCFC;" edge="1" parent="1" source="KRiP4CdJcdi0m5m1S3oV-20" target="KRiP4CdJcdi0m5m1S3oV-16">
          <mxGeometry relative="1" as="geometry" />
        </mxCell>
        <mxCell id="KRiP4CdJcdi0m5m1S3oV-31" style="edgeStyle=orthogonalEdgeStyle;rounded=0;orthogonalLoop=1;jettySize=auto;html=1;exitX=0.5;exitY=1;exitDx=0;exitDy=0;strokeColor=#FFFFFF;entryX=0.073;entryY=0.03;entryDx=0;entryDy=0;entryPerimeter=0;" edge="1" parent="1" source="KRiP4CdJcdi0m5m1S3oV-25" target="KRiP4CdJcdi0m5m1S3oV-32">
          <mxGeometry relative="1" as="geometry">
            <mxPoint x="-790.7777777777778" y="-334.2596978081597" as="targetPoint" />
          </mxGeometry>
        </mxCell>
        <mxCell id="KRiP4CdJcdi0m5m1S3oV-33" value="relevant entities extracted&#xa;for image generation" style="edgeLabel;align=center;verticalAlign=middle;resizable=0;points=[];labelBorderColor=default;fontColor=#FFFFFF;labelBackgroundColor=#000000;fontSize=24;" vertex="1" connectable="0" parent="KRiP4CdJcdi0m5m1S3oV-31">
          <mxGeometry x="-0.018" relative="1" as="geometry">
            <mxPoint as="offset" />
          </mxGeometry>
        </mxCell>
        <mxCell id="KRiP4CdJcdi0m5m1S3oV-25" value="&lt;span style=&quot;font-size: 24px;&quot;&gt;Script generated for video presentation&lt;/span&gt;" style="rounded=1;whiteSpace=wrap;html=1;rotation=0;fillColor=#000000;strokeColor=#FFFFFF;fontColor=#FFFFFF;" vertex="1" parent="1">
          <mxGeometry x="-864" y="-657" width="147" height="144" as="geometry" />
        </mxCell>
        <mxCell id="KRiP4CdJcdi0m5m1S3oV-27" style="edgeStyle=orthogonalEdgeStyle;rounded=0;orthogonalLoop=1;jettySize=auto;html=1;exitX=1;exitY=0.5;exitDx=0;exitDy=0;entryX=-0.005;entryY=0.567;entryDx=0;entryDy=0;entryPerimeter=0;strokeColor=#FFFFFF;" edge="1" parent="1" source="KRiP4CdJcdi0m5m1S3oV-17" target="KRiP4CdJcdi0m5m1S3oV-25">
          <mxGeometry relative="1" as="geometry" />
        </mxCell>
        <mxCell id="KRiP4CdJcdi0m5m1S3oV-38" style="edgeStyle=orthogonalEdgeStyle;rounded=0;orthogonalLoop=1;jettySize=auto;html=1;exitX=0.5;exitY=1;exitDx=0;exitDy=0;entryX=0.5;entryY=0;entryDx=0;entryDy=0;strokeColor=#FFFFFF;" edge="1" parent="1" source="KRiP4CdJcdi0m5m1S3oV-28" target="KRiP4CdJcdi0m5m1S3oV-37">
          <mxGeometry relative="1" as="geometry" />
        </mxCell>
        <mxCell id="KRiP4CdJcdi0m5m1S3oV-28" value="&lt;span style=&quot;font-size: 24px;&quot;&gt;Speech generated from generated script&lt;/span&gt;" style="rounded=1;whiteSpace=wrap;html=1;rotation=0;fillColor=#000000;strokeColor=#FFFFFF;fontColor=#FFFFFF;" vertex="1" parent="1">
          <mxGeometry x="-507" y="-668" width="147" height="166" as="geometry" />
        </mxCell>
        <mxCell id="KRiP4CdJcdi0m5m1S3oV-29" style="edgeStyle=orthogonalEdgeStyle;rounded=0;orthogonalLoop=1;jettySize=auto;html=1;entryX=0;entryY=0.5;entryDx=0;entryDy=0;strokeColor=#FFFFFF;exitX=1;exitY=0.5;exitDx=0;exitDy=0;" edge="1" parent="1" source="KRiP4CdJcdi0m5m1S3oV-25" target="KRiP4CdJcdi0m5m1S3oV-28">
          <mxGeometry relative="1" as="geometry">
            <mxPoint x="-701" y="-588" as="sourcePoint" />
            <mxPoint x="-624" y="-587.75" as="targetPoint" />
          </mxGeometry>
        </mxCell>
        <mxCell id="KRiP4CdJcdi0m5m1S3oV-30" value="" style="shape=image;html=1;verticalAlign=top;verticalLabelPosition=bottom;labelBackgroundColor=#ffffff;imageAspect=0;aspect=fixed;image=https://cdn0.iconfinder.com/data/icons/phosphor-fill-vol-4/256/speaker-simple-high-fill-128.png" vertex="1" parent="1">
          <mxGeometry x="-478" y="-738" width="61" height="61" as="geometry" />
        </mxCell>
        <mxCell id="KRiP4CdJcdi0m5m1S3oV-32" value="&lt;span style=&quot;font-size: 24px;&quot;&gt;image generated based on extracted entities&lt;/span&gt;" style="rounded=1;whiteSpace=wrap;html=1;rotation=0;fillColor=#000000;strokeColor=#FFFFFF;fontColor=#FFFFFF;" vertex="1" parent="1">
          <mxGeometry x="-794" y="177" width="147" height="166" as="geometry" />
        </mxCell>
        <mxCell id="KRiP4CdJcdi0m5m1S3oV-35" value="" style="html=1;verticalLabelPosition=bottom;align=center;labelBackgroundColor=#ffffff;verticalAlign=top;strokeWidth=2;strokeColor=#FCFCFC;shadow=0;dashed=0;shape=mxgraph.ios7.icons.note;pointerEvents=1" vertex="1" parent="1">
          <mxGeometry x="10" y="-696" width="36" height="46" as="geometry" />
        </mxCell>
        <mxCell id="KRiP4CdJcdi0m5m1S3oV-36" value="" style="shape=image;html=1;verticalAlign=top;verticalLabelPosition=bottom;labelBackgroundColor=#ffffff;imageAspect=0;aspect=fixed;image=https://cdn4.iconfinder.com/data/icons/48-bubbles/48/18.Pictures-Day-128.png" vertex="1" parent="1">
          <mxGeometry x="-748" y="122" width="55" height="55" as="geometry" />
        </mxCell>
        <mxCell id="KRiP4CdJcdi0m5m1S3oV-37" value="&lt;span style=&quot;font-size: 24px;&quot;&gt;Transcription generated based on generated speech&lt;/span&gt;" style="rounded=1;whiteSpace=wrap;html=1;rotation=0;fillColor=#000000;strokeColor=#FFFFFF;fontColor=#FFFFFF;" vertex="1" parent="1">
          <mxGeometry x="-507" y="-44" width="147" height="166" as="geometry" />
        </mxCell>
        <mxCell id="KRiP4CdJcdi0m5m1S3oV-46" style="edgeStyle=orthogonalEdgeStyle;rounded=0;orthogonalLoop=1;jettySize=auto;html=1;exitX=1;exitY=0.5;exitDx=0;exitDy=0;strokeColor=#FFFFFF;entryX=0.5;entryY=0;entryDx=0;entryDy=0;" edge="1" parent="1" source="KRiP4CdJcdi0m5m1S3oV-43" target="KRiP4CdJcdi0m5m1S3oV-47">
          <mxGeometry relative="1" as="geometry">
            <mxPoint x="-166" y="-217" as="targetPoint" />
          </mxGeometry>
        </mxCell>
        <mxCell id="KRiP4CdJcdi0m5m1S3oV-43" value="&lt;font style=&quot;font-size: 20px;&quot; color=&quot;#ffffff&quot;&gt;Merge&lt;/font&gt;" style="triangle;whiteSpace=wrap;html=1;direction=south;strokeColor=#FCFCFC;fillColor=#000000;" vertex="1" parent="1">
          <mxGeometry x="-237" y="-427" width="136" height="103" as="geometry" />
        </mxCell>
        <mxCell id="KRiP4CdJcdi0m5m1S3oV-44" style="edgeStyle=orthogonalEdgeStyle;rounded=0;orthogonalLoop=1;jettySize=auto;html=1;exitX=1;exitY=1;exitDx=0;exitDy=0;entryX=0.025;entryY=0.988;entryDx=0;entryDy=0;entryPerimeter=0;strokeColor=#FFFFFF;" edge="1" parent="1" source="KRiP4CdJcdi0m5m1S3oV-28" target="KRiP4CdJcdi0m5m1S3oV-43">
          <mxGeometry relative="1" as="geometry">
            <Array as="points">
              <mxPoint x="-235" y="-502" />
            </Array>
          </mxGeometry>
        </mxCell>
        <mxCell id="KRiP4CdJcdi0m5m1S3oV-45" style="edgeStyle=orthogonalEdgeStyle;rounded=0;orthogonalLoop=1;jettySize=auto;html=1;exitX=0;exitY=1;exitDx=0;exitDy=0;entryX=0.037;entryY=0.028;entryDx=0;entryDy=0;entryPerimeter=0;strokeColor=#FFFFFF;" edge="1" parent="1" source="KRiP4CdJcdi0m5m1S3oV-16" target="KRiP4CdJcdi0m5m1S3oV-43">
          <mxGeometry relative="1" as="geometry">
            <Array as="points">
              <mxPoint x="-105" y="-497" />
            </Array>
          </mxGeometry>
        </mxCell>
        <mxCell id="KRiP4CdJcdi0m5m1S3oV-47" value="&lt;font style=&quot;font-size: 24px;&quot;&gt;Combined audio&lt;/font&gt;" style="rounded=1;whiteSpace=wrap;html=1;rotation=0;fillColor=#000000;strokeColor=#FFFFFF;fontColor=#FFFFFF;" vertex="1" parent="1">
          <mxGeometry x="-242.5" y="-202" width="147" height="166" as="geometry" />
        </mxCell>
        <mxCell id="KRiP4CdJcdi0m5m1S3oV-49" value="&lt;span style=&quot;font-size: 24px;&quot;&gt;Video presentation generated&lt;/span&gt;" style="rounded=1;whiteSpace=wrap;html=1;rotation=0;fillColor=#000000;strokeColor=#FFFFFF;fontColor=#FFFFFF;fontFamily=Helvetica;" vertex="1" parent="1">
          <mxGeometry x="221" y="166" width="147" height="166" as="geometry" />
        </mxCell>
        <mxCell id="KRiP4CdJcdi0m5m1S3oV-50" value="&lt;font style=&quot;font-size: 20px;&quot; color=&quot;#ffffff&quot;&gt;Merge&lt;/font&gt;" style="triangle;whiteSpace=wrap;html=1;direction=south;strokeColor=#FCFCFC;fillColor=#000000;" vertex="1" parent="1">
          <mxGeometry x="-166" y="197.5" width="136" height="103" as="geometry" />
        </mxCell>
        <mxCell id="KRiP4CdJcdi0m5m1S3oV-51" style="edgeStyle=orthogonalEdgeStyle;rounded=0;orthogonalLoop=1;jettySize=auto;html=1;entryX=0.012;entryY=0.431;entryDx=0;entryDy=0;strokeColor=#FFFFFF;exitX=0.389;exitY=0.184;exitDx=0;exitDy=0;exitPerimeter=0;entryPerimeter=0;" edge="1" parent="1" source="KRiP4CdJcdi0m5m1S3oV-50" target="KRiP4CdJcdi0m5m1S3oV-49">
          <mxGeometry relative="1" as="geometry">
            <mxPoint x="-58" y="237" as="sourcePoint" />
            <mxPoint x="152" y="237" as="targetPoint" />
          </mxGeometry>
        </mxCell>
        <mxCell id="KRiP4CdJcdi0m5m1S3oV-52" style="edgeStyle=orthogonalEdgeStyle;rounded=0;orthogonalLoop=1;jettySize=auto;html=1;exitX=0.75;exitY=1;exitDx=0;exitDy=0;strokeColor=#FFFFFF;entryX=0;entryY=0.75;entryDx=0;entryDy=0;" edge="1" parent="1" source="KRiP4CdJcdi0m5m1S3oV-47" target="KRiP4CdJcdi0m5m1S3oV-50">
          <mxGeometry relative="1" as="geometry">
            <mxPoint x="-121" y="122" as="targetPoint" />
            <mxPoint x="-121" as="sourcePoint" />
          </mxGeometry>
        </mxCell>
        <mxCell id="KRiP4CdJcdi0m5m1S3oV-53" style="edgeStyle=orthogonalEdgeStyle;rounded=0;orthogonalLoop=1;jettySize=auto;html=1;exitX=1;exitY=1;exitDx=0;exitDy=0;strokeColor=#FFFFFF;entryX=0.024;entryY=0.977;entryDx=0;entryDy=0;entryPerimeter=0;" edge="1" parent="1" source="KRiP4CdJcdi0m5m1S3oV-37" target="KRiP4CdJcdi0m5m1S3oV-50">
          <mxGeometry relative="1" as="geometry">
            <mxPoint x="-231" y="208" as="targetPoint" />
            <mxPoint x="-231" y="86" as="sourcePoint" />
          </mxGeometry>
        </mxCell>
        <mxCell id="KRiP4CdJcdi0m5m1S3oV-54" style="edgeStyle=orthogonalEdgeStyle;rounded=0;orthogonalLoop=1;jettySize=auto;html=1;strokeColor=#FFFFFF;exitX=1.021;exitY=0.441;exitDx=0;exitDy=0;exitPerimeter=0;" edge="1" parent="1" source="KRiP4CdJcdi0m5m1S3oV-32" target="KRiP4CdJcdi0m5m1S3oV-50">
          <mxGeometry relative="1" as="geometry">
            <mxPoint x="-638" y="290" as="sourcePoint" />
            <mxPoint x="-360" y="290" as="targetPoint" />
          </mxGeometry>
        </mxCell>
      </root>
    </mxGraphModel>
  </diagram>
</mxfile>
